<mxfile host="Electron" agent="Mozilla/5.0 (Windows NT 10.0; Win64; x64) AppleWebKit/537.36 (KHTML, like Gecko) draw.io/27.0.9 Chrome/134.0.6998.205 Electron/35.4.0 Safari/537.36" version="27.0.9">
  <diagram name="Página-1" id="D96-Qu4XxsOY9I6QT1gx">
    <mxGraphModel dx="946" dy="661" grid="1" gridSize="10" guides="1" tooltips="1" connect="1" arrows="1" fold="1" page="1" pageScale="1" pageWidth="827" pageHeight="1169" math="0" shadow="0">
      <root>
        <mxCell id="0" />
        <mxCell id="1" parent="0" />
        <mxCell id="YRRPQ3yXwW440biE5ihW-45" value="" style="rounded=0;whiteSpace=wrap;html=1;fillColor=none;" vertex="1" parent="1">
          <mxGeometry x="20" y="240" width="530" height="170" as="geometry" />
        </mxCell>
        <mxCell id="6wpwbZSCB9kCQWjQ8swL-2" value="&lt;div style=&quot;line-height: 100%;&quot;&gt;&lt;div style=&quot;text-align: left;&quot;&gt;&lt;font style=&quot;font-size: 10px;&quot;&gt;Ejercicio 07: Pequeña empresa&lt;/font&gt;&lt;/div&gt;&lt;div style=&quot;text-align: left;&quot;&gt;&lt;font style=&quot;font-size: 10px;&quot;&gt;Una base de datos para una pequeña empresa debe contener información acerca de clientes, artículos y&amp;nbsp;&lt;/font&gt;&lt;span style=&quot;font-size: 10px; background-color: transparent; color: light-dark(rgb(0, 0, 0), rgb(255, 255, 255));&quot;&gt;pedidos.&lt;/span&gt;&lt;/div&gt;&lt;div style=&quot;text-align: left;&quot;&gt;&lt;font style=&quot;font-size: 10px;&quot;&gt;Hasta el momento se registran los siguientes datos en documentos varios:&lt;/font&gt;&lt;/div&gt;&lt;div style=&quot;text-align: left;&quot;&gt;&lt;font style=&quot;font-size: 10px;&quot;&gt;• &lt;font style=&quot;color: rgb(204, 0, 0);&quot;&gt;Para cada cliente: Número de cliente (único), direcciones de envío (varias por cliente), saldo, límite de&amp;nbsp;&lt;/font&gt;&lt;/font&gt;&lt;span style=&quot;font-size: 10px; background-color: transparent;&quot;&gt;&lt;font style=&quot;color: rgb(204, 0, 0);&quot;&gt;crédito y descuento.&lt;/font&gt;&lt;/span&gt;&lt;/div&gt;&lt;div style=&quot;text-align: left;&quot;&gt;&lt;font style=&quot;color: rgb(204, 0, 0);&quot;&gt;&lt;font style=&quot;font-size: 10px;&quot;&gt;• Para cada dirección: Se guardará un código (único), el tipo de vía, el nombre de la vía, el número, el&amp;nbsp;&lt;/font&gt;&lt;span style=&quot;font-size: 10px; background-color: transparent;&quot;&gt;piso, el portal y el código postal.&lt;/span&gt;&lt;/font&gt;&lt;/div&gt;&lt;div style=&quot;text-align: left;&quot;&gt;&lt;font style=&quot;color: rgb(255, 0, 0);&quot;&gt;&lt;font style=&quot;font-size: 10px;&quot;&gt;• Para cada artículo: Número de artículo (único), fábricas que lo distribuyen (hay varias), existencias de&amp;nbsp;&lt;/font&gt;&lt;span style=&quot;font-size: 10px; background-color: transparent;&quot;&gt;ese artículo en cada fábrica y descripción del artículo.&lt;/span&gt;&lt;/font&gt;&lt;/div&gt;&lt;div style=&quot;text-align: left;&quot;&gt;&lt;font style=&quot;color: rgb(255, 0, 0);&quot;&gt;&lt;font style=&quot;font-size: 10px;&quot;&gt;• Para cada pedido: Cada pedido se registrará en un documento impreso que tiene una cabecera y el&amp;nbsp;&lt;/font&gt;&lt;span style=&quot;font-size: 10px; background-color: transparent;&quot;&gt;cuerpo del pedido. Para generar dicho informe se necesitará la siguiente información:&lt;/span&gt;&lt;/font&gt;&lt;/div&gt;&lt;div style=&quot;text-align: left;&quot;&gt;&lt;font style=&quot;color: rgb(204, 0, 0);&quot;&gt;&lt;font style=&quot;font-size: 10px;&quot;&gt;o La cabecera está formada por el número de pedido (único), número de cliente, dirección de&amp;nbsp;&lt;/font&gt;&lt;span style=&quot;font-size: 10px; background-color: transparent;&quot;&gt;envío y fecha del pedido. Hay que tener en cuenta que un cliente realiza un pedido con una&amp;nbsp;&lt;/span&gt;&lt;span style=&quot;font-size: 10px; background-color: transparent;&quot;&gt;dirección de envío.&lt;/span&gt;&lt;/font&gt;&lt;/div&gt;&lt;div style=&quot;text-align: left;&quot;&gt;&lt;font style=&quot;color: rgb(255, 0, 0);&quot;&gt;&lt;font style=&quot;font-size: 10px;&quot;&gt;o El cuerpo del pedido son varias líneas y en cada línea se especifican el número del artículo&amp;nbsp;&lt;/font&gt;&lt;span style=&quot;font-size: 10px; background-color: transparent;&quot;&gt;pedido y la cantidad, además de un código único para cada línea.&lt;/span&gt;&lt;/font&gt;&lt;/div&gt;&lt;div style=&quot;text-align: left;&quot;&gt;&lt;font style=&quot;font-size: 10px; color: rgb(204, 0, 0);&quot;&gt;• Además, se ha determinado que se debe almacenar la información de las fábricas. Sin embargo, dado&amp;nbsp;&lt;/font&gt;&lt;/div&gt;&lt;div style=&quot;text-align: left;&quot;&gt;&lt;font style=&quot;font-size: 10px; color: rgb(204, 0, 0);&quot;&gt;el uso de distribuidores, se usará: Número de la fábrica (único) y teléfono de contacto.&lt;/font&gt;&lt;/div&gt;&lt;div style=&quot;text-align: left;&quot;&gt;&lt;font style=&quot;color: rgb(255, 0, 0);&quot;&gt;&lt;font style=&quot;font-size: 10px;&quot;&gt;• Se desean ver cuántos artículos (en total) provee la fábrica. También, por información estratégica, se&amp;nbsp;&lt;/font&gt;&lt;span style=&quot;font-size: 10px; background-color: transparent;&quot;&gt;podría incluir información de fábricas alternativas respecto de las que ya fabrican artículos para esta&amp;nbsp;&lt;/span&gt;&lt;span style=&quot;font-size: 10px; background-color: transparent;&quot;&gt;empresa.&lt;/span&gt;&lt;/font&gt;&lt;/div&gt;&lt;div&gt;&lt;/div&gt;&lt;/div&gt;" style="text;html=1;align=center;verticalAlign=middle;whiteSpace=wrap;rounded=0;" parent="1" vertex="1">
          <mxGeometry x="15" width="600" height="220" as="geometry" />
        </mxCell>
        <mxCell id="YRRPQ3yXwW440biE5ihW-1" value="cliente" style="whiteSpace=wrap;html=1;align=center;fillColor=#f0a30a;strokeColor=#BD7000;fontColor=#000000;" vertex="1" parent="1">
          <mxGeometry x="120" y="310" width="50" height="40" as="geometry" />
        </mxCell>
        <mxCell id="YRRPQ3yXwW440biE5ihW-3" value="tiene" style="shape=rhombus;perimeter=rhombusPerimeter;whiteSpace=wrap;html=1;align=center;fillColor=#76608a;fontColor=#ffffff;strokeColor=#432D57;" vertex="1" parent="1">
          <mxGeometry x="210" y="310" width="90" height="40" as="geometry" />
        </mxCell>
        <mxCell id="YRRPQ3yXwW440biE5ihW-4" value="" style="endArrow=none;html=1;rounded=0;exitX=0;exitY=0.5;exitDx=0;exitDy=0;entryX=1;entryY=0.5;entryDx=0;entryDy=0;" edge="1" source="YRRPQ3yXwW440biE5ihW-3" parent="1" target="YRRPQ3yXwW440biE5ihW-1">
          <mxGeometry relative="1" as="geometry">
            <mxPoint x="241" y="300" as="sourcePoint" />
            <mxPoint x="194" y="330" as="targetPoint" />
          </mxGeometry>
        </mxCell>
        <mxCell id="YRRPQ3yXwW440biE5ihW-5" value="(1,N)" style="resizable=0;html=1;whiteSpace=wrap;align=right;verticalAlign=bottom;" connectable="0" vertex="1" parent="YRRPQ3yXwW440biE5ihW-4">
          <mxGeometry x="1" relative="1" as="geometry">
            <mxPoint x="34" as="offset" />
          </mxGeometry>
        </mxCell>
        <mxCell id="YRRPQ3yXwW440biE5ihW-6" value="" style="endArrow=none;html=1;rounded=0;exitX=1;exitY=0.5;exitDx=0;exitDy=0;entryX=0;entryY=0.5;entryDx=0;entryDy=0;" edge="1" source="YRRPQ3yXwW440biE5ihW-3" parent="1" target="YRRPQ3yXwW440biE5ihW-8">
          <mxGeometry relative="1" as="geometry">
            <mxPoint x="241" y="300" as="sourcePoint" />
            <mxPoint x="414" y="330" as="targetPoint" />
          </mxGeometry>
        </mxCell>
        <mxCell id="YRRPQ3yXwW440biE5ihW-7" value="(1,M)" style="resizable=0;html=1;whiteSpace=wrap;align=right;verticalAlign=bottom;" connectable="0" vertex="1" parent="YRRPQ3yXwW440biE5ihW-6">
          <mxGeometry x="1" relative="1" as="geometry">
            <mxPoint as="offset" />
          </mxGeometry>
        </mxCell>
        <mxCell id="YRRPQ3yXwW440biE5ihW-8" value="direccionEnvio" style="whiteSpace=wrap;html=1;align=center;fillColor=#f0a30a;strokeColor=#BD7000;fontColor=#000000;" vertex="1" parent="1">
          <mxGeometry x="340" y="310" width="100" height="40" as="geometry" />
        </mxCell>
        <mxCell id="YRRPQ3yXwW440biE5ihW-11" value="pide" style="shape=rhombus;perimeter=rhombusPerimeter;whiteSpace=wrap;html=1;align=center;fillColor=#76608a;fontColor=#ffffff;strokeColor=#432D57;" vertex="1" parent="1">
          <mxGeometry x="39" y="440" width="90" height="40" as="geometry" />
        </mxCell>
        <mxCell id="YRRPQ3yXwW440biE5ihW-12" value="" style="endArrow=none;html=1;rounded=0;exitX=0.5;exitY=0;exitDx=0;exitDy=0;entryX=0.118;entryY=1.005;entryDx=0;entryDy=0;entryPerimeter=0;" edge="1" source="YRRPQ3yXwW440biE5ihW-11" parent="1" target="YRRPQ3yXwW440biE5ihW-45">
          <mxGeometry relative="1" as="geometry">
            <mxPoint x="207" y="450" as="sourcePoint" />
            <mxPoint x="270" y="380" as="targetPoint" />
          </mxGeometry>
        </mxCell>
        <mxCell id="YRRPQ3yXwW440biE5ihW-13" value="(1,N)" style="resizable=0;html=1;whiteSpace=wrap;align=right;verticalAlign=bottom;" connectable="0" vertex="1" parent="YRRPQ3yXwW440biE5ihW-12">
          <mxGeometry x="1" relative="1" as="geometry">
            <mxPoint x="30" y="19" as="offset" />
          </mxGeometry>
        </mxCell>
        <mxCell id="YRRPQ3yXwW440biE5ihW-17" value="" style="endArrow=none;html=1;rounded=0;exitX=0.5;exitY=0;exitDx=0;exitDy=0;" edge="1" target="YRRPQ3yXwW440biE5ihW-18" parent="1" source="YRRPQ3yXwW440biE5ihW-1">
          <mxGeometry relative="1" as="geometry">
            <mxPoint x="160" y="285" as="sourcePoint" />
            <mxPoint x="220" y="285" as="targetPoint" />
          </mxGeometry>
        </mxCell>
        <mxCell id="YRRPQ3yXwW440biE5ihW-18" value="&lt;u&gt;nCliente&lt;/u&gt;" style="ellipse;whiteSpace=wrap;html=1;align=center;" vertex="1" parent="1">
          <mxGeometry x="120" y="260" width="50" height="30" as="geometry" />
        </mxCell>
        <mxCell id="YRRPQ3yXwW440biE5ihW-19" value="" style="endArrow=none;html=1;rounded=0;exitX=0.5;exitY=1;exitDx=0;exitDy=0;entryX=0;entryY=0.5;entryDx=0;entryDy=0;" edge="1" parent="1" source="YRRPQ3yXwW440biE5ihW-11" target="YRRPQ3yXwW440biE5ihW-53">
          <mxGeometry relative="1" as="geometry">
            <mxPoint x="129" y="460" as="sourcePoint" />
            <mxPoint x="73.99999999999989" y="451.2500000000001" as="targetPoint" />
            <Array as="points">
              <mxPoint x="40" y="560" />
            </Array>
          </mxGeometry>
        </mxCell>
        <mxCell id="YRRPQ3yXwW440biE5ihW-21" value="" style="endArrow=none;html=1;rounded=0;exitX=0;exitY=0;exitDx=0;exitDy=0;" edge="1" target="YRRPQ3yXwW440biE5ihW-22" parent="1" source="YRRPQ3yXwW440biE5ihW-1">
          <mxGeometry relative="1" as="geometry">
            <mxPoint x="10" y="315" as="sourcePoint" />
            <mxPoint x="70" y="315" as="targetPoint" />
          </mxGeometry>
        </mxCell>
        <mxCell id="YRRPQ3yXwW440biE5ihW-22" value="saldo" style="ellipse;whiteSpace=wrap;html=1;align=center;" vertex="1" parent="1">
          <mxGeometry x="60" y="290" width="35" height="30" as="geometry" />
        </mxCell>
        <mxCell id="YRRPQ3yXwW440biE5ihW-23" value="" style="endArrow=none;html=1;rounded=0;exitX=0;exitY=0.5;exitDx=0;exitDy=0;" edge="1" target="YRRPQ3yXwW440biE5ihW-24" parent="1" source="YRRPQ3yXwW440biE5ihW-1">
          <mxGeometry relative="1" as="geometry">
            <mxPoint x="20" y="355" as="sourcePoint" />
            <mxPoint x="80" y="355" as="targetPoint" />
          </mxGeometry>
        </mxCell>
        <mxCell id="YRRPQ3yXwW440biE5ihW-24" value="limCred" style="ellipse;whiteSpace=wrap;html=1;align=center;" vertex="1" parent="1">
          <mxGeometry x="30" y="320" width="55" height="30" as="geometry" />
        </mxCell>
        <mxCell id="YRRPQ3yXwW440biE5ihW-25" value="" style="endArrow=none;html=1;rounded=0;exitX=0.063;exitY=0.902;exitDx=0;exitDy=0;exitPerimeter=0;" edge="1" target="YRRPQ3yXwW440biE5ihW-26" parent="1" source="YRRPQ3yXwW440biE5ihW-1">
          <mxGeometry relative="1" as="geometry">
            <mxPoint x="10" y="375" as="sourcePoint" />
            <mxPoint x="70" y="375" as="targetPoint" />
          </mxGeometry>
        </mxCell>
        <mxCell id="YRRPQ3yXwW440biE5ihW-26" value="descuento" style="ellipse;whiteSpace=wrap;html=1;align=center;" vertex="1" parent="1">
          <mxGeometry x="30" y="360" width="65" height="30" as="geometry" />
        </mxCell>
        <mxCell id="YRRPQ3yXwW440biE5ihW-27" value="" style="endArrow=none;html=1;rounded=0;exitX=0.25;exitY=0;exitDx=0;exitDy=0;" edge="1" target="YRRPQ3yXwW440biE5ihW-28" parent="1" source="YRRPQ3yXwW440biE5ihW-8">
          <mxGeometry relative="1" as="geometry">
            <mxPoint x="370" y="275" as="sourcePoint" />
            <mxPoint x="430" y="275" as="targetPoint" />
          </mxGeometry>
        </mxCell>
        <mxCell id="YRRPQ3yXwW440biE5ihW-28" value="&lt;u&gt;codigo&lt;/u&gt;" style="ellipse;whiteSpace=wrap;html=1;align=center;" vertex="1" parent="1">
          <mxGeometry x="340" y="260" width="50" height="30" as="geometry" />
        </mxCell>
        <mxCell id="YRRPQ3yXwW440biE5ihW-46" style="rounded=0;orthogonalLoop=1;jettySize=auto;html=1;exitX=0.5;exitY=1;exitDx=0;exitDy=0;endArrow=none;startFill=0;strokeColor=none;" edge="1" parent="1" source="YRRPQ3yXwW440biE5ihW-30" target="YRRPQ3yXwW440biE5ihW-8">
          <mxGeometry relative="1" as="geometry" />
        </mxCell>
        <mxCell id="YRRPQ3yXwW440biE5ihW-30" value="tipoVia" style="ellipse;whiteSpace=wrap;html=1;align=center;" vertex="1" parent="1">
          <mxGeometry x="390" y="250" width="50" height="30" as="geometry" />
        </mxCell>
        <mxCell id="YRRPQ3yXwW440biE5ihW-31" value="" style="endArrow=none;html=1;rounded=0;exitX=0.75;exitY=0;exitDx=0;exitDy=0;" edge="1" target="YRRPQ3yXwW440biE5ihW-32" parent="1" source="YRRPQ3yXwW440biE5ihW-8">
          <mxGeometry relative="1" as="geometry">
            <mxPoint x="465" y="295" as="sourcePoint" />
            <mxPoint x="525" y="295" as="targetPoint" />
          </mxGeometry>
        </mxCell>
        <mxCell id="YRRPQ3yXwW440biE5ihW-32" value="nombreVia" style="ellipse;whiteSpace=wrap;html=1;align=center;" vertex="1" parent="1">
          <mxGeometry x="440" y="270" width="70" height="30" as="geometry" />
        </mxCell>
        <mxCell id="YRRPQ3yXwW440biE5ihW-35" value="" style="endArrow=none;html=1;rounded=0;exitX=1;exitY=0.25;exitDx=0;exitDy=0;" edge="1" target="YRRPQ3yXwW440biE5ihW-36" parent="1" source="YRRPQ3yXwW440biE5ihW-8">
          <mxGeometry relative="1" as="geometry">
            <mxPoint x="465" y="325" as="sourcePoint" />
            <mxPoint x="525" y="325" as="targetPoint" />
          </mxGeometry>
        </mxCell>
        <mxCell id="YRRPQ3yXwW440biE5ihW-36" value="numero" style="ellipse;whiteSpace=wrap;html=1;align=center;" vertex="1" parent="1">
          <mxGeometry x="480" y="300" width="50" height="30" as="geometry" />
        </mxCell>
        <mxCell id="YRRPQ3yXwW440biE5ihW-37" value="" style="endArrow=none;html=1;rounded=0;exitX=0.983;exitY=0.626;exitDx=0;exitDy=0;exitPerimeter=0;" edge="1" target="YRRPQ3yXwW440biE5ihW-38" parent="1" source="YRRPQ3yXwW440biE5ihW-8">
          <mxGeometry relative="1" as="geometry">
            <mxPoint x="445" y="345" as="sourcePoint" />
            <mxPoint x="505" y="345" as="targetPoint" />
          </mxGeometry>
        </mxCell>
        <mxCell id="YRRPQ3yXwW440biE5ihW-38" value="piso" style="ellipse;whiteSpace=wrap;html=1;align=center;" vertex="1" parent="1">
          <mxGeometry x="480" y="340" width="30" height="30" as="geometry" />
        </mxCell>
        <mxCell id="YRRPQ3yXwW440biE5ihW-39" value="" style="endArrow=none;html=1;rounded=0;exitX=1;exitY=1;exitDx=0;exitDy=0;" edge="1" target="YRRPQ3yXwW440biE5ihW-40" parent="1" source="YRRPQ3yXwW440biE5ihW-8">
          <mxGeometry relative="1" as="geometry">
            <mxPoint x="450" y="370" as="sourcePoint" />
            <mxPoint x="485" y="395" as="targetPoint" />
          </mxGeometry>
        </mxCell>
        <mxCell id="YRRPQ3yXwW440biE5ihW-40" value="portal" style="ellipse;whiteSpace=wrap;html=1;align=center;" vertex="1" parent="1">
          <mxGeometry x="440" y="360" width="40" height="30" as="geometry" />
        </mxCell>
        <mxCell id="YRRPQ3yXwW440biE5ihW-41" value="" style="endArrow=none;html=1;rounded=0;exitX=0.75;exitY=1;exitDx=0;exitDy=0;" edge="1" target="YRRPQ3yXwW440biE5ihW-42" parent="1" source="YRRPQ3yXwW440biE5ihW-8">
          <mxGeometry relative="1" as="geometry">
            <mxPoint x="348" y="385" as="sourcePoint" />
            <mxPoint x="408" y="385" as="targetPoint" />
          </mxGeometry>
        </mxCell>
        <mxCell id="YRRPQ3yXwW440biE5ihW-42" value="codPostal" style="ellipse;whiteSpace=wrap;html=1;align=center;" vertex="1" parent="1">
          <mxGeometry x="370" y="370" width="57" height="30" as="geometry" />
        </mxCell>
        <mxCell id="YRRPQ3yXwW440biE5ihW-53" value="pedido" style="whiteSpace=wrap;html=1;align=center;fillColor=#f0a30a;strokeColor=#BD7000;fontColor=#000000;shape=label;margin=3;double=1;" vertex="1" parent="1">
          <mxGeometry x="85" y="565" width="100" height="40" as="geometry" />
        </mxCell>
        <mxCell id="YRRPQ3yXwW440biE5ihW-59" value="contiene" style="shape=rhombus;perimeter=rhombusPerimeter;whiteSpace=wrap;html=1;align=center;fillColor=#76608a;fontColor=#ffffff;strokeColor=#432D57;" vertex="1" parent="1">
          <mxGeometry x="355" y="645" width="90" height="40" as="geometry" />
        </mxCell>
        <mxCell id="YRRPQ3yXwW440biE5ihW-60" value="" style="endArrow=none;html=1;rounded=0;exitX=0.5;exitY=0;exitDx=0;exitDy=0;entryX=0.5;entryY=1;entryDx=0;entryDy=0;" edge="1" source="YRRPQ3yXwW440biE5ihW-59" parent="1" target="YRRPQ3yXwW440biE5ihW-90">
          <mxGeometry relative="1" as="geometry">
            <mxPoint x="441" y="635" as="sourcePoint" />
            <mxPoint x="405" y="625" as="targetPoint" />
            <Array as="points" />
          </mxGeometry>
        </mxCell>
        <mxCell id="YRRPQ3yXwW440biE5ihW-61" value="(1,N)" style="resizable=0;html=1;whiteSpace=wrap;align=right;verticalAlign=bottom;" connectable="0" vertex="1" parent="YRRPQ3yXwW440biE5ihW-60">
          <mxGeometry x="1" relative="1" as="geometry">
            <mxPoint x="34" y="25" as="offset" />
          </mxGeometry>
        </mxCell>
        <mxCell id="YRRPQ3yXwW440biE5ihW-62" value="" style="endArrow=none;html=1;rounded=0;exitX=0.5;exitY=1;exitDx=0;exitDy=0;entryX=0.5;entryY=0;entryDx=0;entryDy=0;" edge="1" source="YRRPQ3yXwW440biE5ihW-59" parent="1" target="YRRPQ3yXwW440biE5ihW-64">
          <mxGeometry relative="1" as="geometry">
            <mxPoint x="436" y="625" as="sourcePoint" />
            <mxPoint x="609" y="655" as="targetPoint" />
          </mxGeometry>
        </mxCell>
        <mxCell id="YRRPQ3yXwW440biE5ihW-63" value="(1,1)" style="resizable=0;html=1;whiteSpace=wrap;align=right;verticalAlign=bottom;" connectable="0" vertex="1" parent="YRRPQ3yXwW440biE5ihW-62">
          <mxGeometry x="1" relative="1" as="geometry">
            <mxPoint as="offset" />
          </mxGeometry>
        </mxCell>
        <mxCell id="YRRPQ3yXwW440biE5ihW-64" value="articulo" style="whiteSpace=wrap;html=1;align=center;fillColor=#f0a30a;strokeColor=#BD7000;fontColor=#000000;" vertex="1" parent="1">
          <mxGeometry x="365" y="725" width="70" height="40" as="geometry" />
        </mxCell>
        <mxCell id="YRRPQ3yXwW440biE5ihW-65" value="proviene" style="shape=rhombus;perimeter=rhombusPerimeter;whiteSpace=wrap;html=1;align=center;fillColor=#76608a;fontColor=#ffffff;strokeColor=#432D57;" vertex="1" parent="1">
          <mxGeometry x="480" y="725" width="90" height="40" as="geometry" />
        </mxCell>
        <mxCell id="YRRPQ3yXwW440biE5ihW-66" value="" style="endArrow=none;html=1;rounded=0;exitX=0;exitY=0.5;exitDx=0;exitDy=0;entryX=1;entryY=0.5;entryDx=0;entryDy=0;" edge="1" source="YRRPQ3yXwW440biE5ihW-65" parent="1" target="YRRPQ3yXwW440biE5ihW-64">
          <mxGeometry relative="1" as="geometry">
            <mxPoint x="716" y="550" as="sourcePoint" />
            <mxPoint x="669" y="580" as="targetPoint" />
          </mxGeometry>
        </mxCell>
        <mxCell id="YRRPQ3yXwW440biE5ihW-67" value="(1,N)" style="resizable=0;html=1;whiteSpace=wrap;align=right;verticalAlign=bottom;" connectable="0" vertex="1" parent="YRRPQ3yXwW440biE5ihW-66">
          <mxGeometry x="1" relative="1" as="geometry">
            <mxPoint x="35" as="offset" />
          </mxGeometry>
        </mxCell>
        <mxCell id="YRRPQ3yXwW440biE5ihW-68" value="" style="endArrow=none;html=1;rounded=0;exitX=1;exitY=0.5;exitDx=0;exitDy=0;entryX=0;entryY=0.5;entryDx=0;entryDy=0;" edge="1" source="YRRPQ3yXwW440biE5ihW-65" parent="1" target="YRRPQ3yXwW440biE5ihW-72">
          <mxGeometry relative="1" as="geometry">
            <mxPoint x="716" y="550" as="sourcePoint" />
            <mxPoint x="630" y="745" as="targetPoint" />
          </mxGeometry>
        </mxCell>
        <mxCell id="YRRPQ3yXwW440biE5ihW-69" value="(1,M)" style="resizable=0;html=1;whiteSpace=wrap;align=right;verticalAlign=bottom;" connectable="0" vertex="1" parent="YRRPQ3yXwW440biE5ihW-68">
          <mxGeometry x="1" relative="1" as="geometry">
            <mxPoint as="offset" />
          </mxGeometry>
        </mxCell>
        <mxCell id="YRRPQ3yXwW440biE5ihW-72" value="fabrica" style="whiteSpace=wrap;html=1;align=center;fillColor=#f0a30a;strokeColor=#BD7000;fontColor=#000000;" vertex="1" parent="1">
          <mxGeometry x="610" y="725" width="60" height="40" as="geometry" />
        </mxCell>
        <mxCell id="YRRPQ3yXwW440biE5ihW-76" value="" style="endArrow=none;html=1;rounded=0;exitX=0.5;exitY=1;exitDx=0;exitDy=0;" edge="1" target="YRRPQ3yXwW440biE5ihW-77" parent="1" source="YRRPQ3yXwW440biE5ihW-64">
          <mxGeometry relative="1" as="geometry">
            <mxPoint x="365" y="820" as="sourcePoint" />
            <mxPoint x="425" y="820" as="targetPoint" />
          </mxGeometry>
        </mxCell>
        <mxCell id="YRRPQ3yXwW440biE5ihW-77" value="&lt;u&gt;nArticulo&lt;/u&gt;" style="ellipse;whiteSpace=wrap;html=1;align=center;" vertex="1" parent="1">
          <mxGeometry x="370" y="785" width="60" height="30" as="geometry" />
        </mxCell>
        <mxCell id="YRRPQ3yXwW440biE5ihW-78" value="" style="endArrow=none;html=1;rounded=0;exitX=0.5;exitY=0;exitDx=0;exitDy=0;" edge="1" target="YRRPQ3yXwW440biE5ihW-79" parent="1" source="YRRPQ3yXwW440biE5ihW-65">
          <mxGeometry relative="1" as="geometry">
            <mxPoint x="498" y="680" as="sourcePoint" />
            <mxPoint x="558" y="680" as="targetPoint" />
          </mxGeometry>
        </mxCell>
        <mxCell id="YRRPQ3yXwW440biE5ihW-79" value="nArticulos" style="ellipse;whiteSpace=wrap;html=1;align=center;" vertex="1" parent="1">
          <mxGeometry x="491.5" y="685" width="67" height="30" as="geometry" />
        </mxCell>
        <mxCell id="YRRPQ3yXwW440biE5ihW-80" value="" style="endArrow=none;html=1;rounded=0;exitX=1;exitY=1;exitDx=0;exitDy=0;" edge="1" target="YRRPQ3yXwW440biE5ihW-81" parent="1" source="YRRPQ3yXwW440biE5ihW-64">
          <mxGeometry relative="1" as="geometry">
            <mxPoint x="445" y="790" as="sourcePoint" />
            <mxPoint x="505" y="790" as="targetPoint" />
          </mxGeometry>
        </mxCell>
        <mxCell id="YRRPQ3yXwW440biE5ihW-81" value="descripcion" style="ellipse;whiteSpace=wrap;html=1;align=center;" vertex="1" parent="1">
          <mxGeometry x="438.5" y="785" width="80" height="30" as="geometry" />
        </mxCell>
        <mxCell id="YRRPQ3yXwW440biE5ihW-82" value="" style="endArrow=none;html=1;rounded=0;exitX=0.5;exitY=0;exitDx=0;exitDy=0;" edge="1" target="YRRPQ3yXwW440biE5ihW-83" parent="1" source="YRRPQ3yXwW440biE5ihW-53">
          <mxGeometry relative="1" as="geometry">
            <mxPoint x="100" y="525" as="sourcePoint" />
            <mxPoint x="160" y="525" as="targetPoint" />
          </mxGeometry>
        </mxCell>
        <mxCell id="YRRPQ3yXwW440biE5ihW-83" value="&lt;u&gt;nPedido&lt;/u&gt;" style="ellipse;whiteSpace=wrap;html=1;align=center;" vertex="1" parent="1">
          <mxGeometry x="80" y="520" width="50" height="30" as="geometry" />
        </mxCell>
        <mxCell id="YRRPQ3yXwW440biE5ihW-84" value="" style="endArrow=none;html=1;rounded=0;exitX=0.75;exitY=0;exitDx=0;exitDy=0;" edge="1" target="YRRPQ3yXwW440biE5ihW-85" parent="1" source="YRRPQ3yXwW440biE5ihW-53">
          <mxGeometry relative="1" as="geometry">
            <mxPoint x="158" y="535" as="sourcePoint" />
            <mxPoint x="218" y="535" as="targetPoint" />
          </mxGeometry>
        </mxCell>
        <mxCell id="YRRPQ3yXwW440biE5ihW-85" value="nCliente" style="ellipse;whiteSpace=wrap;html=1;align=center;" vertex="1" parent="1">
          <mxGeometry x="140" y="500" width="50" height="30" as="geometry" />
        </mxCell>
        <mxCell id="YRRPQ3yXwW440biE5ihW-86" value="" style="endArrow=none;html=1;rounded=0;exitX=1;exitY=0.25;exitDx=0;exitDy=0;" edge="1" target="YRRPQ3yXwW440biE5ihW-87" parent="1" source="YRRPQ3yXwW440biE5ihW-53">
          <mxGeometry relative="1" as="geometry">
            <mxPoint x="200" y="580" as="sourcePoint" />
            <mxPoint x="260" y="580" as="targetPoint" />
          </mxGeometry>
        </mxCell>
        <mxCell id="YRRPQ3yXwW440biE5ihW-87" value="direccionEnvio" style="ellipse;whiteSpace=wrap;html=1;align=center;" vertex="1" parent="1">
          <mxGeometry x="190" y="510" width="95" height="30" as="geometry" />
        </mxCell>
        <mxCell id="YRRPQ3yXwW440biE5ihW-88" value="" style="endArrow=none;html=1;rounded=0;exitX=1;exitY=0.75;exitDx=0;exitDy=0;" edge="1" target="YRRPQ3yXwW440biE5ihW-89" parent="1" source="YRRPQ3yXwW440biE5ihW-53">
          <mxGeometry relative="1" as="geometry">
            <mxPoint x="200" y="595" as="sourcePoint" />
            <mxPoint x="260" y="595" as="targetPoint" />
          </mxGeometry>
        </mxCell>
        <mxCell id="YRRPQ3yXwW440biE5ihW-89" value="fechaEnvio" style="ellipse;whiteSpace=wrap;html=1;align=center;" vertex="1" parent="1">
          <mxGeometry x="190" y="605" width="75" height="30" as="geometry" />
        </mxCell>
        <mxCell id="YRRPQ3yXwW440biE5ihW-90" value="linea" style="shape=ext;margin=3;double=1;whiteSpace=wrap;html=1;align=center;fillColor=#f0a30a;fontColor=#000000;strokeColor=#BD7000;" vertex="1" parent="1">
          <mxGeometry x="350" y="565" width="100" height="40" as="geometry" />
        </mxCell>
        <mxCell id="YRRPQ3yXwW440biE5ihW-91" value="contiene" style="shape=rhombus;perimeter=rhombusPerimeter;whiteSpace=wrap;html=1;align=center;fillColor=#76608a;fontColor=#ffffff;strokeColor=#432D57;" vertex="1" parent="1">
          <mxGeometry x="221.5" y="565" width="90" height="40" as="geometry" />
        </mxCell>
        <mxCell id="YRRPQ3yXwW440biE5ihW-92" value="" style="endArrow=none;html=1;rounded=0;exitX=0;exitY=0.5;exitDx=0;exitDy=0;entryX=1;entryY=0.5;entryDx=0;entryDy=0;" edge="1" source="YRRPQ3yXwW440biE5ihW-91" parent="1" target="YRRPQ3yXwW440biE5ihW-53">
          <mxGeometry relative="1" as="geometry">
            <mxPoint x="247" y="555" as="sourcePoint" />
            <mxPoint x="200" y="585" as="targetPoint" />
          </mxGeometry>
        </mxCell>
        <mxCell id="YRRPQ3yXwW440biE5ihW-93" value="(1,N)" style="resizable=0;html=1;whiteSpace=wrap;align=right;verticalAlign=bottom;" connectable="0" vertex="1" parent="YRRPQ3yXwW440biE5ihW-92">
          <mxGeometry x="1" relative="1" as="geometry">
            <mxPoint x="34" as="offset" />
          </mxGeometry>
        </mxCell>
        <mxCell id="YRRPQ3yXwW440biE5ihW-94" value="" style="endArrow=none;html=1;rounded=0;exitX=1;exitY=0.5;exitDx=0;exitDy=0;entryX=0;entryY=0.5;entryDx=0;entryDy=0;" edge="1" source="YRRPQ3yXwW440biE5ihW-91" parent="1" target="YRRPQ3yXwW440biE5ihW-90">
          <mxGeometry relative="1" as="geometry">
            <mxPoint x="247" y="555" as="sourcePoint" />
            <mxPoint x="350" y="580" as="targetPoint" />
          </mxGeometry>
        </mxCell>
        <mxCell id="YRRPQ3yXwW440biE5ihW-95" value="(1,M)" style="resizable=0;html=1;whiteSpace=wrap;align=right;verticalAlign=bottom;" connectable="0" vertex="1" parent="YRRPQ3yXwW440biE5ihW-94">
          <mxGeometry x="1" relative="1" as="geometry">
            <mxPoint as="offset" />
          </mxGeometry>
        </mxCell>
        <mxCell id="YRRPQ3yXwW440biE5ihW-97" value="" style="endArrow=none;html=1;rounded=0;exitX=0.5;exitY=0;exitDx=0;exitDy=0;" edge="1" target="YRRPQ3yXwW440biE5ihW-98" parent="1" source="YRRPQ3yXwW440biE5ihW-90">
          <mxGeometry relative="1" as="geometry">
            <mxPoint x="365" y="520" as="sourcePoint" />
            <mxPoint x="425" y="520" as="targetPoint" />
          </mxGeometry>
        </mxCell>
        <mxCell id="YRRPQ3yXwW440biE5ihW-98" value="&lt;u&gt;codigoLinea&lt;/u&gt;" style="ellipse;whiteSpace=wrap;html=1;align=center;" vertex="1" parent="1">
          <mxGeometry x="360" y="520" width="80" height="30" as="geometry" />
        </mxCell>
        <mxCell id="YRRPQ3yXwW440biE5ihW-99" value="" style="endArrow=none;html=1;rounded=0;exitX=1;exitY=0.25;exitDx=0;exitDy=0;" edge="1" target="YRRPQ3yXwW440biE5ihW-100" parent="1" source="YRRPQ3yXwW440biE5ihW-90">
          <mxGeometry relative="1" as="geometry">
            <mxPoint x="475" y="565" as="sourcePoint" />
            <mxPoint x="535" y="565" as="targetPoint" />
          </mxGeometry>
        </mxCell>
        <mxCell id="YRRPQ3yXwW440biE5ihW-100" value="nArticulo" style="ellipse;whiteSpace=wrap;html=1;align=center;" vertex="1" parent="1">
          <mxGeometry x="475" y="555" width="50" height="30" as="geometry" />
        </mxCell>
        <mxCell id="YRRPQ3yXwW440biE5ihW-101" value="" style="endArrow=none;html=1;rounded=0;exitX=1;exitY=0.75;exitDx=0;exitDy=0;" edge="1" target="YRRPQ3yXwW440biE5ihW-102" parent="1" source="YRRPQ3yXwW440biE5ihW-90">
          <mxGeometry relative="1" as="geometry">
            <mxPoint x="450" y="630" as="sourcePoint" />
            <mxPoint x="510" y="630" as="targetPoint" />
          </mxGeometry>
        </mxCell>
        <mxCell id="YRRPQ3yXwW440biE5ihW-102" value="cantidad" style="ellipse;whiteSpace=wrap;html=1;align=center;" vertex="1" parent="1">
          <mxGeometry x="475" y="590" width="50" height="30" as="geometry" />
        </mxCell>
        <mxCell id="YRRPQ3yXwW440biE5ihW-103" value="" style="endArrow=none;html=1;rounded=0;exitX=0.5;exitY=0;exitDx=0;exitDy=0;" edge="1" target="YRRPQ3yXwW440biE5ihW-104" parent="1" source="YRRPQ3yXwW440biE5ihW-72">
          <mxGeometry relative="1" as="geometry">
            <mxPoint x="610" y="665" as="sourcePoint" />
            <mxPoint x="670" y="665" as="targetPoint" />
          </mxGeometry>
        </mxCell>
        <mxCell id="YRRPQ3yXwW440biE5ihW-104" value="&lt;u&gt;nFabrica&lt;/u&gt;" style="ellipse;whiteSpace=wrap;html=1;align=center;" vertex="1" parent="1">
          <mxGeometry x="615" y="680" width="55" height="30" as="geometry" />
        </mxCell>
        <mxCell id="YRRPQ3yXwW440biE5ihW-105" value="" style="endArrow=none;html=1;rounded=0;exitX=1;exitY=0.5;exitDx=0;exitDy=0;" edge="1" target="YRRPQ3yXwW440biE5ihW-106" parent="1" source="YRRPQ3yXwW440biE5ihW-72">
          <mxGeometry relative="1" as="geometry">
            <mxPoint x="680" y="745" as="sourcePoint" />
            <mxPoint x="740" y="745" as="targetPoint" />
          </mxGeometry>
        </mxCell>
        <mxCell id="YRRPQ3yXwW440biE5ihW-106" value="tlf" style="ellipse;whiteSpace=wrap;html=1;align=center;" vertex="1" parent="1">
          <mxGeometry x="690" y="730" width="25" height="30" as="geometry" />
        </mxCell>
        <mxCell id="YRRPQ3yXwW440biE5ihW-107" value="" style="endArrow=none;html=1;rounded=0;exitX=0.5;exitY=1;exitDx=0;exitDy=0;" edge="1" target="YRRPQ3yXwW440biE5ihW-108" parent="1" source="YRRPQ3yXwW440biE5ihW-72">
          <mxGeometry relative="1" as="geometry">
            <mxPoint x="559" y="630" as="sourcePoint" />
            <mxPoint x="619" y="630" as="targetPoint" />
          </mxGeometry>
        </mxCell>
        <mxCell id="YRRPQ3yXwW440biE5ihW-108" value="nArticulosTotales" style="ellipse;whiteSpace=wrap;html=1;align=center;" vertex="1" parent="1">
          <mxGeometry x="550" y="780" width="106" height="30" as="geometry" />
        </mxCell>
        <mxCell id="YRRPQ3yXwW440biE5ihW-109" value="" style="endArrow=none;html=1;rounded=0;exitX=1;exitY=1;exitDx=0;exitDy=0;" edge="1" target="YRRPQ3yXwW440biE5ihW-110" parent="1" source="YRRPQ3yXwW440biE5ihW-72">
          <mxGeometry relative="1" as="geometry">
            <mxPoint x="656" y="795" as="sourcePoint" />
            <mxPoint x="716" y="795" as="targetPoint" />
          </mxGeometry>
        </mxCell>
        <mxCell id="YRRPQ3yXwW440biE5ihW-110" value="infoExtra" style="ellipse;whiteSpace=wrap;html=1;align=center;" vertex="1" parent="1">
          <mxGeometry x="670" y="780" width="69" height="30" as="geometry" />
        </mxCell>
      </root>
    </mxGraphModel>
  </diagram>
</mxfile>
